<?xml version="1.0" encoding="utf-8"?>
<!-- Generator: Adobe Illustrator 22.1.0, SVG Export Plug-In . SVG Version: 6.00 Build 0)  -->
<!DOCTYPE svg PUBLIC "-//W3C//DTD SVG 1.1//EN" "http://www.w3.org/Graphics/SVG/1.1/DTD/svg11.dtd">
<svg version="1.1" xmlns="http://www.w3.org/2000/svg" xmlns:xlink="http://www.w3.org/1999/xlink" x="0px" y="0px" width="128px"
	 height="128px" viewBox="0 0 128 128" style="enable-background:new 0 0 128 128;" xml:space="preserve">
<style type="text/css">
	.st0{fill:none;}
	.st1{fill:#ACD2FF;}
	.st2{fill:#3679E0;}
	.st3{fill:#1E60DD;}
	.st4{clip-path:url(#SVGID_2_);}
	.st5{fill:none;stroke:#343741;stroke-width:0.2;stroke-linecap:square;stroke-miterlimit:10;}
	.st6{clip-path:url(#SVGID_4_);}
	.st7{clip-path:url(#SVGID_6_);}
	.st8{clip-path:url(#SVGID_8_);}
	.st9{fill-rule:evenodd;clip-rule:evenodd;fill:#3679E0;}
	.st10{clip-path:url(#SVGID_10_);}
	.st11{clip-path:url(#SVGID_12_);}
</style>
<g id="Label_1_">
</g>
<g id="Box">
	<rect class="st0" width="128" height="128"/>
</g>
<g id="Icon">
	<path class="st1" d="M118,32.3L65,13.4L12,32.3l53,18.9L118,32.3z M12,73.9l53,18.9l53-18.9L65,55L12,73.9z"/>
	<polygon class="st9" points="65,34.2 12,53.1 65,72 118,53.1 	"/>
	<g>
		<polygon class="st3" points="65,34.2 41.1,42.7 65,51.3 88.9,42.7 		"/>
		<polygon class="st3" points="65,72 88.9,63.5 65,55 41.1,63.5 		"/>
	</g>
	<g>
		<defs>
			<polygon id="SVGID_11_" points="65,75.8 12,94.7 65,113.6 118,94.7 			"/>
		</defs>
		<clipPath id="SVGID_2_">
			<use xlink:href="#SVGID_11_"  style="overflow:visible;"/>
		</clipPath>
		<g class="st4">
			<line class="st5" x1="81" y1="4" x2="1" y2="84"/>
			<line class="st5" x1="1" y1="88" x2="85" y2="4"/>
			<line class="st5" x1="1" y1="80" x2="77" y2="4"/>
			<line class="st5" x1="1" y1="76" x2="73" y2="4"/>
			<line class="st5" x1="1" y1="72" x2="69" y2="4"/>
			<line class="st5" x1="97" y1="4" x2="1" y2="100"/>
			<line class="st5" x1="109" y1="4" x2="1" y2="112"/>
			<line class="st5" x1="89" y1="4" x2="1" y2="92"/>
			<line class="st5" x1="1" y1="96" x2="93" y2="4"/>
			<line class="st5" x1="113" y1="4" x2="1" y2="116"/>
			<line class="st5" x1="1" y1="120" x2="117" y2="4"/>
			<line class="st5" x1="1" y1="68" x2="65" y2="4"/>
			<line class="st5" x1="101" y1="4" x2="1" y2="104"/>
			<line class="st5" x1="1" y1="108" x2="105" y2="4"/>
			<line class="st5" x1="17" y1="4" x2="1" y2="20"/>
			<line class="st5" x1="21" y1="4" x2="1" y2="24"/>
			<line class="st5" x1="5" y1="4" x2="1" y2="8"/>
			<line class="st5" x1="25" y1="4" x2="1" y2="28"/>
			<line class="st5" x1="9" y1="4" x2="1" y2="12"/>
			<line class="st5" x1="1" y1="16" x2="13" y2="4"/>
			<line class="st5" x1="53" y1="4" x2="1" y2="56"/>
			<line class="st5" x1="57" y1="4" x2="1" y2="60"/>
			<line class="st5" x1="1" y1="64" x2="61" y2="4"/>
			<line class="st5" x1="1" y1="52" x2="49" y2="4"/>
			<line class="st5" x1="1" y1="48" x2="45" y2="4"/>
			<line class="st5" x1="29" y1="4" x2="1" y2="32"/>
			<line class="st5" x1="1" y1="36" x2="33" y2="4"/>
			<line class="st5" x1="37" y1="4" x2="1" y2="40"/>
			<line class="st5" x1="1" y1="44" x2="41" y2="4"/>
			<line class="st5" x1="93" y1="124" x2="121" y2="96"/>
			<line class="st5" x1="121" y1="88" x2="85" y2="124"/>
			<line class="st5" x1="89" y1="124" x2="121" y2="92"/>
			<line class="st5" x1="69" y1="124" x2="121" y2="72"/>
			<line class="st5" x1="121" y1="76" x2="73" y2="124"/>
			<line class="st5" x1="121" y1="80" x2="77" y2="124"/>
			<line class="st5" x1="81" y1="124" x2="121" y2="84"/>
			<line class="st5" x1="121" y1="116" x2="113" y2="124"/>
			<line class="st5" x1="121" y1="120" x2="117" y2="124"/>
			<line class="st5" x1="109" y1="124" x2="121" y2="112"/>
			<line class="st5" x1="121" y1="100" x2="97" y2="124"/>
			<line class="st5" x1="121" y1="104" x2="101" y2="124"/>
			<line class="st5" x1="105" y1="124" x2="121" y2="108"/>
			<line class="st5" x1="121" y1="4" x2="1" y2="124"/>
			<line class="st5" x1="5" y1="124" x2="121" y2="8"/>
			<line class="st5" x1="21" y1="124" x2="121" y2="24"/>
			<line class="st5" x1="121" y1="36" x2="33" y2="124"/>
			<line class="st5" x1="121" y1="28" x2="25" y2="124"/>
			<line class="st5" x1="29" y1="124" x2="121" y2="32"/>
			<line class="st5" x1="121" y1="12" x2="9" y2="124"/>
			<line class="st5" x1="121" y1="16" x2="13" y2="124"/>
			<line class="st5" x1="17" y1="124" x2="121" y2="20"/>
			<line class="st5" x1="121" y1="40" x2="37" y2="124"/>
			<line class="st5" x1="121" y1="64" x2="61" y2="124"/>
			<line class="st5" x1="65" y1="124" x2="121" y2="68"/>
			<line class="st5" x1="121" y1="56" x2="53" y2="124"/>
			<line class="st5" x1="57" y1="124" x2="121" y2="60"/>
			<line class="st5" x1="49" y1="124" x2="121" y2="52"/>
			<line class="st5" x1="121" y1="44" x2="41" y2="124"/>
			<line class="st5" x1="45" y1="124" x2="121" y2="48"/>
		</g>
	</g>
</g>
</svg>
