<?xml version="1.0" encoding="utf-8"?>
<!-- Generator: Adobe Illustrator 22.1.0, SVG Export Plug-In . SVG Version: 6.00 Build 0)  -->
<!DOCTYPE svg PUBLIC "-//W3C//DTD SVG 1.1//EN" "http://www.w3.org/Graphics/SVG/1.1/DTD/svg11.dtd">
<svg version="1.1" xmlns="http://www.w3.org/2000/svg" xmlns:xlink="http://www.w3.org/1999/xlink" x="0px" y="0px" width="128px"
	 height="128px" viewBox="0 0 128 128" style="enable-background:new 0 0 128 128;" xml:space="preserve">
<style type="text/css">
	.st0{fill:none;}
	.st1{fill:#ACD2FF;}
	.st2{fill:#3679E0;}
	.st3{fill:#1E60DD;}
	.st4{clip-path:url(#SVGID_2_);}
	.st5{fill:none;stroke:#343741;stroke-width:0.2;stroke-linecap:square;stroke-miterlimit:10;}
	.st6{clip-path:url(#SVGID_4_);}
	.st7{clip-path:url(#SVGID_6_);}
	.st8{clip-path:url(#SVGID_8_);}
	.st9{fill-rule:evenodd;clip-rule:evenodd;fill:#3679E0;}
	.st10{clip-path:url(#SVGID_10_);}
	.st11{clip-path:url(#SVGID_12_);}
</style>
<g id="Label_1_">
</g>
<g id="Box">
	<rect x="0" class="st0" width="128" height="128"/>
</g>
<g id="Icon">
	<g>
		<defs>
			<rect id="SVGID_9_" x="40" y="11" width="21" height="105"/>
		</defs>
		<clipPath id="SVGID_2_">
			<use xlink:href="#SVGID_9_"  style="overflow:visible;"/>
		</clipPath>
		<g class="st4">
			<line class="st5" x1="84" y1="4" x2="4" y2="84"/>
			<line class="st5" x1="4" y1="88" x2="88" y2="4"/>
			<line class="st5" x1="4" y1="80" x2="80" y2="4"/>
			<line class="st5" x1="4" y1="76" x2="76" y2="4"/>
			<line class="st5" x1="4" y1="72" x2="72" y2="4"/>
			<line class="st5" x1="100" y1="4" x2="4" y2="100"/>
			<line class="st5" x1="112" y1="4" x2="4" y2="112"/>
			<line class="st5" x1="92" y1="4" x2="4" y2="92"/>
			<line class="st5" x1="4" y1="96" x2="96" y2="4"/>
			<line class="st5" x1="116" y1="4" x2="4" y2="116"/>
			<line class="st5" x1="4" y1="120" x2="120" y2="4"/>
			<line class="st5" x1="4" y1="68" x2="68" y2="4"/>
			<line class="st5" x1="104" y1="4" x2="4" y2="104"/>
			<line class="st5" x1="4" y1="108" x2="108" y2="4"/>
			<line class="st5" x1="20" y1="4" x2="4" y2="20"/>
			<line class="st5" x1="24" y1="4" x2="4" y2="24"/>
			<line class="st5" x1="8" y1="4" x2="4" y2="8"/>
			<line class="st5" x1="28" y1="4" x2="4" y2="28"/>
			<line class="st5" x1="12" y1="4" x2="4" y2="12"/>
			<line class="st5" x1="4" y1="16" x2="16" y2="4"/>
			<line class="st5" x1="56" y1="4" x2="4" y2="56"/>
			<line class="st5" x1="60" y1="4" x2="4" y2="60"/>
			<line class="st5" x1="4" y1="64" x2="64" y2="4"/>
			<line class="st5" x1="4" y1="52" x2="52" y2="4"/>
			<line class="st5" x1="4" y1="48" x2="48" y2="4"/>
			<line class="st5" x1="32" y1="4" x2="4" y2="32"/>
			<line class="st5" x1="4" y1="36" x2="36" y2="4"/>
			<line class="st5" x1="40" y1="4" x2="4" y2="40"/>
			<line class="st5" x1="4" y1="44" x2="44" y2="4"/>
			<line class="st5" x1="96" y1="124" x2="124" y2="96"/>
			<line class="st5" x1="124" y1="88" x2="88" y2="124"/>
			<line class="st5" x1="92" y1="124" x2="124" y2="92"/>
			<line class="st5" x1="72" y1="124" x2="124" y2="72"/>
			<line class="st5" x1="124" y1="76" x2="76" y2="124"/>
			<line class="st5" x1="124" y1="80" x2="80" y2="124"/>
			<line class="st5" x1="84" y1="124" x2="124" y2="84"/>
			<line class="st5" x1="124" y1="116" x2="116" y2="124"/>
			<line class="st5" x1="124" y1="120" x2="120" y2="124"/>
			<line class="st5" x1="112" y1="124" x2="124" y2="112"/>
			<line class="st5" x1="124" y1="100" x2="100" y2="124"/>
			<line class="st5" x1="124" y1="104" x2="104" y2="124"/>
			<line class="st5" x1="108" y1="124" x2="124" y2="108"/>
			<line class="st5" x1="124" y1="4" x2="4" y2="124"/>
			<line class="st5" x1="8" y1="124" x2="124" y2="8"/>
			<line class="st5" x1="24" y1="124" x2="124" y2="24"/>
			<line class="st5" x1="124" y1="36" x2="36" y2="124"/>
			<line class="st5" x1="124" y1="28" x2="28" y2="124"/>
			<line class="st5" x1="32" y1="124" x2="124" y2="32"/>
			<line class="st5" x1="124" y1="12" x2="12" y2="124"/>
			<line class="st5" x1="124" y1="16" x2="16" y2="124"/>
			<line class="st5" x1="20" y1="124" x2="124" y2="20"/>
			<line class="st5" x1="124" y1="40" x2="40" y2="124"/>
			<line class="st5" x1="124" y1="64" x2="64" y2="124"/>
			<line class="st5" x1="68" y1="124" x2="124" y2="68"/>
			<line class="st5" x1="124" y1="56" x2="56" y2="124"/>
			<line class="st5" x1="60" y1="124" x2="124" y2="60"/>
			<line class="st5" x1="52" y1="124" x2="124" y2="52"/>
			<line class="st5" x1="124" y1="44" x2="44" y2="124"/>
			<line class="st5" x1="48" y1="124" x2="124" y2="48"/>
		</g>
	</g>
	<path class="st1" d="M13,116h21V44H13V116z M67,116h21V59H67V116z M94,28v88h21V28H94z"/>
	<path class="st2" d="M115,47c-3.3,0-6,2.7-6,6c0,0.7,0.1,1.3,0.3,1.9L91.3,78c-0.1,0-0.2,0-0.3,0c-1.6,0-3,0.6-4,1.6l-17-8.7
		c-0.1-3.2-2.7-5.8-6-5.8c-3.3,0-6,2.7-6,6c0,0.5,0.1,1,0.2,1.4L39,91.3c-0.6-0.2-1.3-0.3-2-0.3c-1.5,0-2.8,0.5-3.9,1.4L19,86.5
		c0-0.2,0-0.4,0-0.5c0-3.3-2.7-6-6-6s-6,2.7-6,6s2.7,6,6,6c1.3,0,2.5-0.4,3.5-1.1L31,97c0,0,0,0,0,0c0,3.3,2.7,6,6,6s6-2.7,6-6
		c0-0.8-0.2-1.5-0.4-2.2l18.7-18.5C62.1,76.8,63,77,64,77c1.5,0,3-0.6,4-1.6l17,8.7c0.1,3.2,2.7,5.8,6,5.8c3.3,0,6-2.7,6-6
		c0-1.4-0.5-2.6-1.2-3.6l17-21.8c0.7,0.3,1.4,0.4,2.2,0.4c3.3,0,6-2.7,6-6S118.3,47,115,47z"/>
	<g>
		<path class="st3" d="M109,53c0,0.7,0.1,1.3,0.3,1.9L94,74.6v14.6c1.8-1,3-3,3-5.2c0-1.4-0.5-2.6-1.2-3.6l17-21.8
			c0.7,0.3,1.4,0.4,2.2,0.4V47C111.7,47,109,49.7,109,53z"/>
		<path class="st3" d="M33.1,92.4L19,86.5c0-0.2,0-0.4,0-0.5c0-3.3-2.7-6-6-6v12c1.3,0,2.5-0.4,3.5-1.1L31,97c0,0,0,0,0,0
			c0,2.2,1.2,4.2,3,5.2V91.8C33.7,92,33.4,92.2,33.1,92.4z"/>
		<path class="st3" d="M87,79.6l-17-8.7c-0.1-2.1-1.2-4-3-5v10.4c0.4-0.2,0.7-0.5,1-0.7l17,8.7c0.1,2.1,1.3,4,3,5V78.8
			C87.6,79,87.3,79.3,87,79.6z"/>
	</g>
</g>
</svg>
