<?xml version="1.0" encoding="utf-8"?>
<!-- Generator: Adobe Illustrator 22.1.0, SVG Export Plug-In . SVG Version: 6.00 Build 0)  -->
<!DOCTYPE svg PUBLIC "-//W3C//DTD SVG 1.1//EN" "http://www.w3.org/Graphics/SVG/1.1/DTD/svg11.dtd">
<svg version="1.1" xmlns="http://www.w3.org/2000/svg" xmlns:xlink="http://www.w3.org/1999/xlink" x="0px" y="0px" width="128px"
	 height="128px" viewBox="0 0 128 128" style="enable-background:new 0 0 128 128;" xml:space="preserve">
<style type="text/css">
	.st0{fill:none;}
	.st1{fill:#ACD2FF;}
	.st2{fill:#3679E0;}
	.st3{fill:#1E60DD;}
	.st4{clip-path:url(#SVGID_2_);}
	.st5{fill:none;stroke:#343741;stroke-width:0.2;stroke-linecap:square;stroke-miterlimit:10;}
	.st6{clip-path:url(#SVGID_4_);}
	.st7{clip-path:url(#SVGID_6_);}
	.st8{clip-path:url(#SVGID_8_);}
	.st9{fill-rule:evenodd;clip-rule:evenodd;fill:#3679E0;}
	.st10{clip-path:url(#SVGID_10_);}
	.st11{clip-path:url(#SVGID_12_);}
</style>
<g id="Label_1_">
</g>
<g id="Box">
	<rect class="st0" width="128" height="128"/>
</g>
<g id="Icon">
	<path class="st1" d="M64,112c-26.5,0-48-21.5-48-48c0-12.8,5-24.9,14.1-33.9C39.1,21,51.2,16,64,16c0,0,0,0,0,0
		c26.5,0,48,21.5,48,48c0,12.8-5,24.9-14.1,33.9C88.9,107,76.8,112,64,112z M64,25c-10.4,0-20.2,4.1-27.6,11.4
		C29.1,43.8,25,53.6,25,64c0,21.5,17.5,39,39,39c10.4,0,20.2-4.1,27.6-11.4C98.9,84.2,103,74.4,103,64C103,42.5,85.5,25,64,25L64,25
		C64,25,64,25,64,25z"/>
	<g>
		<defs>
			<path id="SVGID_5_" d="M34.9,25.8l40.9,26.3L102.2,93C108.3,85,112,74.9,112,64c0-12.8-5-24.9-14.1-33.9C88.9,21,76.8,16,64,16
				C53.1,16,43,19.7,34.9,25.8z M25.8,34.9C19.7,43,16,53.1,16,64v0c0,12.8,5,24.9,14.1,33.9C39.1,107,51.2,112,64,112
				c10.9,0,21-3.7,29.1-9.8L52.2,75.8L25.8,34.9z"/>
		</defs>
		<clipPath id="SVGID_2_">
			<use xlink:href="#SVGID_5_"  style="overflow:visible;"/>
		</clipPath>
		<g class="st4">
			<line class="st5" x1="84" y1="2" x2="4" y2="82"/>
			<line class="st5" x1="4" y1="86" x2="88" y2="2"/>
			<line class="st5" x1="4" y1="78" x2="80" y2="2"/>
			<line class="st5" x1="4" y1="74" x2="76" y2="2"/>
			<line class="st5" x1="4" y1="70" x2="72" y2="2"/>
			<line class="st5" x1="100" y1="2" x2="4" y2="98"/>
			<line class="st5" x1="112" y1="2" x2="4" y2="110"/>
			<line class="st5" x1="92" y1="2" x2="4" y2="90"/>
			<line class="st5" x1="4" y1="94" x2="96" y2="2"/>
			<line class="st5" x1="116" y1="2" x2="4" y2="114"/>
			<line class="st5" x1="4" y1="118" x2="120" y2="2"/>
			<line class="st5" x1="4" y1="66" x2="68" y2="2"/>
			<line class="st5" x1="104" y1="2" x2="4" y2="102"/>
			<line class="st5" x1="4" y1="106" x2="108" y2="2"/>
			<line class="st5" x1="20" y1="2" x2="4" y2="18"/>
			<line class="st5" x1="24" y1="2" x2="4" y2="22"/>
			<line class="st5" x1="8" y1="2" x2="4" y2="6"/>
			<line class="st5" x1="28" y1="2" x2="4" y2="26"/>
			<line class="st5" x1="12" y1="2" x2="4" y2="10"/>
			<line class="st5" x1="4" y1="14" x2="16" y2="2"/>
			<line class="st5" x1="56" y1="2" x2="4" y2="54"/>
			<line class="st5" x1="60" y1="2" x2="4" y2="58"/>
			<line class="st5" x1="4" y1="62" x2="64" y2="2"/>
			<line class="st5" x1="4" y1="50" x2="52" y2="2"/>
			<line class="st5" x1="4" y1="46" x2="48" y2="2"/>
			<line class="st5" x1="32" y1="2" x2="4" y2="30"/>
			<line class="st5" x1="4" y1="34" x2="36" y2="2"/>
			<line class="st5" x1="40" y1="2" x2="4" y2="38"/>
			<line class="st5" x1="4" y1="42" x2="44" y2="2"/>
			<line class="st5" x1="96" y1="122" x2="124" y2="94"/>
			<line class="st5" x1="124" y1="86" x2="88" y2="122"/>
			<line class="st5" x1="92" y1="122" x2="124" y2="90"/>
			<line class="st5" x1="72" y1="122" x2="124" y2="70"/>
			<line class="st5" x1="124" y1="74" x2="76" y2="122"/>
			<line class="st5" x1="124" y1="78" x2="80" y2="122"/>
			<line class="st5" x1="84" y1="122" x2="124" y2="82"/>
			<line class="st5" x1="124" y1="114" x2="116" y2="122"/>
			<line class="st5" x1="124" y1="118" x2="120" y2="122"/>
			<line class="st5" x1="112" y1="122" x2="124" y2="110"/>
			<line class="st5" x1="124" y1="98" x2="100" y2="122"/>
			<line class="st5" x1="124" y1="102" x2="104" y2="122"/>
			<line class="st5" x1="108" y1="122" x2="124" y2="106"/>
			<line class="st5" x1="124" y1="2" x2="4" y2="122"/>
			<line class="st5" x1="8" y1="122" x2="124" y2="6"/>
			<line class="st5" x1="24" y1="122" x2="124" y2="22"/>
			<line class="st5" x1="124" y1="34" x2="36" y2="122"/>
			<line class="st5" x1="124" y1="26" x2="28" y2="122"/>
			<line class="st5" x1="32" y1="122" x2="124" y2="30"/>
			<line class="st5" x1="124" y1="10" x2="12" y2="122"/>
			<line class="st5" x1="124" y1="14" x2="16" y2="122"/>
			<line class="st5" x1="20" y1="122" x2="124" y2="18"/>
			<line class="st5" x1="124" y1="38" x2="40" y2="122"/>
			<line class="st5" x1="124" y1="62" x2="64" y2="122"/>
			<line class="st5" x1="68" y1="122" x2="124" y2="66"/>
			<line class="st5" x1="124" y1="54" x2="56" y2="122"/>
			<line class="st5" x1="60" y1="122" x2="124" y2="58"/>
			<line class="st5" x1="52" y1="122" x2="124" y2="50"/>
			<line class="st5" x1="124" y1="42" x2="44" y2="122"/>
			<line class="st5" x1="48" y1="122" x2="124" y2="46"/>
		</g>
	</g>
	<path class="st2" d="M20,25.9l32.2,49.9l49.9,32.2l5.9-5.9L75.8,52.2L25.9,20L20,25.9z M71.1,63.9c0,3.9-3.2,7.1-7.1,7.1
		c-3.9,0-7.1-3.2-7.1-7.1c0-3.9,3.2-7.1,7.1-7.1C67.9,56.8,71.1,59.9,71.1,63.9z"/>
	<g>
		<path class="st3" d="M96.9,84.9c-1.5,2.4-3.3,4.6-5.3,6.7c-2,2-4.3,3.8-6.7,5.4l8.2,5.3c1.7-1.3,3.3-2.7,4.9-4.3
			c1.5-1.5,2.9-3.2,4.2-4.9L96.9,84.9z"/>
		<path class="st3" d="M31.1,43.1c1.5-2.4,3.3-4.6,5.4-6.7c2-2,4.3-3.8,6.7-5.3l-8.2-5.3c-1.7,1.3-3.3,2.7-4.9,4.2
			c-1.5,1.5-3,3.2-4.3,4.9L31.1,43.1z"/>
	</g>
</g>
</svg>
