<svg xmlns="http://www.w3.org/2000/svg" viewBox="574.7 400 41.2 41.9"><path opacity=".12" fill-rule="evenodd" clip-rule="evenodd" fill="#420000" d="M592.4 416.7l6.7 4.5.9-.5-7.6-4z"/><path fill="#007398" d="M609.1 415.3s-.3-1.9-1.1-2.8c-1.1-1.1-2.3-1.1-2.8-1.2-4-.3-9.9-.3-9.9-.3s-5.9 0-9.9.3c-.6.1-1.8.1-2.8 1.2-.8.9-1.1 2.8-1.1 2.8s-.3 2.3-.3 4.6v2.1c0 2.3.3 4.6.3 4.6s.3 1.9 1.1 2.8c1.1 1.1 2.5 1.1 3.1 1.2 2.3.2 9.6.3 9.6.3s5.9 0 9.9-.3c.6-.1 1.8-.1 2.8-1.2.8-.9 1.1-2.8 1.1-2.8s.3-2.3.3-4.6v-2.1c0-2.3-.3-4.6-.3-4.6zm-16.7 9.3v-7.9l7.6 4-7.6 3.9z"/></svg>
