<?xml version="1.0" encoding="utf-8"?>
<!-- Generator: Adobe Illustrator 22.1.0, SVG Export Plug-In . SVG Version: 6.00 Build 0)  -->
<!DOCTYPE svg PUBLIC "-//W3C//DTD SVG 1.1//EN" "http://www.w3.org/Graphics/SVG/1.1/DTD/svg11.dtd">
<svg version="1.1" xmlns="http://www.w3.org/2000/svg" xmlns:xlink="http://www.w3.org/1999/xlink" x="0px" y="0px" width="128px"
	 height="128px" viewBox="0 0 128 128" style="enable-background:new 0 0 128 128;" xml:space="preserve">
<style type="text/css">
	.st0{fill:none;}
	.st1{fill:#ACD2FF;}
	.st2{fill:#3679E0;}
	.st3{fill:#1E60DD;}
	.st4{clip-path:url(#SVGID_2_);}
	.st5{fill:none;stroke:#343741;stroke-width:0.2;stroke-linecap:square;stroke-miterlimit:10;}
	.st6{clip-path:url(#SVGID_4_);}
	.st7{clip-path:url(#SVGID_6_);}
	.st8{clip-path:url(#SVGID_8_);}
	.st9{fill-rule:evenodd;clip-rule:evenodd;fill:#3679E0;}
	.st10{clip-path:url(#SVGID_10_);}
	.st11{clip-path:url(#SVGID_12_);}
</style>
<g id="Label_1_">
</g>
<g id="Box">
	<rect class="st0" width="128" height="128"/>
</g>
<g id="Icon">
	<rect x="78" y="28" class="st1" width="10" height="30"/>
	<rect x="78" y="28" transform="matrix(6.123234e-17 -1 1 6.123234e-17 40 126)" class="st2" width="10" height="30"/>
	<rect x="78" y="38" class="st3" width="10" height="10"/>
	<g>
		<defs>
			<rect id="SVGID_1_" x="22" y="14" width="94" height="66"/>
		</defs>
		<clipPath id="SVGID_2_">
			<use xlink:href="#SVGID_1_"  style="overflow:visible;"/>
		</clipPath>
		<g class="st4">
			<line class="st5" x1="84" y1="6" x2="4" y2="86"/>
			<line class="st5" x1="4" y1="90" x2="88" y2="6"/>
			<line class="st5" x1="4" y1="82" x2="80" y2="6"/>
			<line class="st5" x1="4" y1="78" x2="76" y2="6"/>
			<line class="st5" x1="4" y1="74" x2="72" y2="6"/>
			<line class="st5" x1="100" y1="6" x2="4" y2="102"/>
			<line class="st5" x1="112" y1="6" x2="4" y2="114"/>
			<line class="st5" x1="92" y1="6" x2="4" y2="94"/>
			<line class="st5" x1="4" y1="98" x2="96" y2="6"/>
			<line class="st5" x1="116" y1="6" x2="4" y2="118"/>
			<line class="st5" x1="4" y1="122" x2="120" y2="6"/>
			<line class="st5" x1="4" y1="70" x2="68" y2="6"/>
			<line class="st5" x1="104" y1="6" x2="4" y2="106"/>
			<line class="st5" x1="4" y1="110" x2="108" y2="6"/>
			<line class="st5" x1="20" y1="6" x2="4" y2="22"/>
			<line class="st5" x1="24" y1="6" x2="4" y2="26"/>
			<line class="st5" x1="8" y1="6" x2="4" y2="10"/>
			<line class="st5" x1="28" y1="6" x2="4" y2="30"/>
			<line class="st5" x1="12" y1="6" x2="4" y2="14"/>
			<line class="st5" x1="4" y1="18" x2="16" y2="6"/>
			<line class="st5" x1="56" y1="6" x2="4" y2="58"/>
			<line class="st5" x1="60" y1="6" x2="4" y2="62"/>
			<line class="st5" x1="4" y1="66" x2="64" y2="6"/>
			<line class="st5" x1="4" y1="54" x2="52" y2="6"/>
			<line class="st5" x1="4" y1="50" x2="48" y2="6"/>
			<line class="st5" x1="32" y1="6" x2="4" y2="34"/>
			<line class="st5" x1="4" y1="38" x2="36" y2="6"/>
			<line class="st5" x1="40" y1="6" x2="4" y2="42"/>
			<line class="st5" x1="4" y1="46" x2="44" y2="6"/>
			<line class="st5" x1="96" y1="126" x2="124" y2="98"/>
			<line class="st5" x1="124" y1="90" x2="88" y2="126"/>
			<line class="st5" x1="92" y1="126" x2="124" y2="94"/>
			<line class="st5" x1="72" y1="126" x2="124" y2="74"/>
			<line class="st5" x1="124" y1="78" x2="76" y2="126"/>
			<line class="st5" x1="124" y1="82" x2="80" y2="126"/>
			<line class="st5" x1="84" y1="126" x2="124" y2="86"/>
			<line class="st5" x1="124" y1="118" x2="116" y2="126"/>
			<line class="st5" x1="124" y1="122" x2="120" y2="126"/>
			<line class="st5" x1="112" y1="126" x2="124" y2="114"/>
			<line class="st5" x1="124" y1="102" x2="100" y2="126"/>
			<line class="st5" x1="124" y1="106" x2="104" y2="126"/>
			<line class="st5" x1="108" y1="126" x2="124" y2="110"/>
			<line class="st5" x1="124" y1="6" x2="4" y2="126"/>
			<line class="st5" x1="8" y1="126" x2="124" y2="10"/>
			<line class="st5" x1="24" y1="126" x2="124" y2="26"/>
			<line class="st5" x1="124" y1="38" x2="36" y2="126"/>
			<line class="st5" x1="124" y1="30" x2="28" y2="126"/>
			<line class="st5" x1="32" y1="126" x2="124" y2="34"/>
			<line class="st5" x1="124" y1="14" x2="12" y2="126"/>
			<line class="st5" x1="124" y1="18" x2="16" y2="126"/>
			<line class="st5" x1="20" y1="126" x2="124" y2="22"/>
			<line class="st5" x1="124" y1="42" x2="40" y2="126"/>
			<line class="st5" x1="124" y1="66" x2="64" y2="126"/>
			<line class="st5" x1="68" y1="126" x2="124" y2="70"/>
			<line class="st5" x1="124" y1="58" x2="56" y2="126"/>
			<line class="st5" x1="60" y1="126" x2="124" y2="62"/>
			<line class="st5" x1="52" y1="126" x2="124" y2="54"/>
			<line class="st5" x1="124" y1="46" x2="44" y2="126"/>
			<line class="st5" x1="48" y1="126" x2="124" y2="50"/>
		</g>
	</g>
	<g>
		<path class="st2" d="M25.4,27.5c-5.7,0-10.4,4.8-10.4,10.6c0,7.1,4.5,12.5,10.4,12.5s10.4-5.4,10.4-12.5
			C35.9,32.4,31.1,27.5,25.4,27.5z"/>
		<path class="st2" d="M68.7,62c-0.7-2.7-2.8-3.7-5.1-3.2c-4.5,1-6.4,1.6-11.7,2.9c0,0-7.2-3.3-12.9-5.7c-4.5-1.9-11-2.4-13.6-2.4
			c-11.5,0-18.3,4.2-19.1,11.8S6,85,6,85h32.2V66l12.9,4.9l13.6-4C67.4,66.2,69.3,64.1,68.7,62z"/>
	</g>
	<path class="st1" d="M48.8,81.6c0-5.3-4.4-9.8-9.7-9.8s-9.7,4.5-9.7,9.8c0,6.6,4.2,11.6,9.7,11.6S48.8,88.2,48.8,81.6z M97.2,71.8
		c-5.3,0-9.7,4.5-9.7,9.8c0,6.6,4.2,11.6,9.7,11.6c5.5,0,9.7-5,9.7-11.6C106.8,76.3,102.4,71.8,97.2,71.8z M53.6,95.1
		c-5.3,0-9.7,4.5-9.7,9.8c0,6.6,4.2,11.6,9.7,11.6c5.5,0,9.7-5,9.7-11.6C63.3,99.6,58.9,95.1,53.6,95.1z M82.7,95.1
		c-5.3,0-9.7,4.5-9.7,9.8c0,6.6,4.2,11.6,9.7,11.6s9.7-5,9.7-11.6C92.3,99.6,87.9,95.1,82.7,95.1z M77.8,81.6c0-5.3-4.4-9.8-9.7-9.8
		c-5.3,0-9.7,4.5-9.7,9.8c0,6.6,4.2,11.6,9.7,11.6C73.7,93.2,77.8,88.2,77.8,81.6z"/>
	<path class="st3" d="M38.2,71.8c-4.8,0.5-8.8,4.8-8.8,9.8c0,1.2,0.1,2.3,0.4,3.4h8.4V71.8z"/>
</g>
</svg>
