<?xml version="1.0" encoding="UTF-8"?>
<svg width="80px" height="80px" viewBox="0 0 80 80" version="1.1" xmlns="http://www.w3.org/2000/svg" xmlns:xlink="http://www.w3.org/1999/xlink">
    <title>accepted-article-80x80</title>
    <defs>
        <polyline id="path-1" points="42.8488146 4.52251677 42.8488146 0 0 0 0 52.5742574 4.57054023 52.5742574 4.57054023 57.0967742 47.4193548 57.0967742 47.4193548 4.52251677 42.8488146 4.52251677"></polyline>
    </defs>
    <g id="accepted-article-80x80" stroke="none" stroke-width="1" fill="none" fill-rule="evenodd">
        <g id="0206-accepted-manuscript" transform="translate(12.000000, 10.000000)">
            <polygon id="Fill-1" fill="#ACD2FF" fill-rule="nonzero" points="4.83870968 57.0967742 47.4193548 57.0967742 47.4193548 4.83870968 4.83870968 4.83870968"></polygon>
            <polygon id="Fill-2" fill="#FFFFFF" fill-rule="nonzero" points="0 52.2580645 42.5806452 52.2580645 42.5806452 0 0 0"></polygon>
            <g id="Stroke-3-Clipped">
                <mask id="mask-2" fill="white">
                    <use xlink:href="#path-1"></use>
                </mask>
                <g id="path-1"></g>
                <path d="M37.1356393,-4.52251677 L-8.56976292,40.7026509 M-8.56976292,42.9639093 L39.4209094,-4.52251677 M-8.56976292,38.4413925 L34.8503692,-4.52251677 M-8.56976292,36.1801341 L32.5650991,-4.52251677 M-8.56976292,33.9188758 L30.279829,-4.52251677 M46.2767198,-4.52251677 L-8.56976292,49.7476844 M53.1325301,-4.52251677 L-8.56976292,56.5314596 M41.7061796,-4.52251677 L-8.56976292,45.2251677 M-8.56976292,47.4864261 L43.9914497,-4.52251677 M55.4178002,-4.52251677 L-8.56976292,58.792718 M-8.56976292,61.0539764 L57.7030703,-4.52251677 M-8.56976292,31.6576174 L27.9945589,-4.52251677 M48.5619899,-4.52251677 L-8.56976292,52.0089428 M-8.56976292,54.2702012 L50.84726,-4.52251677 M0.571317528,-4.52251677 L-8.56976292,4.52251677 M2.85658764,-4.52251677 L-8.56976292,6.78377515 M5.14185775,-4.52251677 L-8.56976292,9.04503354 M21.1387485,-4.52251677 L-8.56976292,24.8738422 M23.4240187,-4.52251677 L-8.56976292,27.1351006 M-8.56976292,29.396359 L25.7092888,-4.52251677 M-8.56976292,22.6125838 L18.8534784,-4.52251677 M-8.56976292,20.3513255 L16.5682083,-4.52251677 M7.42712787,-4.52251677 L-8.56976292,11.3062919 M-8.56976292,13.5675503 L9.71239798,-4.52251677 M11.9976681,-4.52251677 L-8.56976292,15.8288087 M-8.56976292,18.0900671 L14.2829382,-4.52251677 M43.9914497,63.3152347 L59.9883405,47.4864261 M59.9883405,42.9639093 L39.4209094,63.3152347 M41.7061796,63.3152347 L59.9883405,45.2251677 M30.279829,63.3152347 L59.9883405,33.9188758 M59.9883405,36.1801341 L32.5650991,63.3152347 M59.9883405,38.4413925 L34.8503692,63.3152347 M37.1356393,63.3152347 L59.9883405,40.7026509 M59.9883405,49.7476844 L46.2767198,63.3152347 M59.9883405,-4.52251677 L-8.56976292,63.3152347 M-6.28449281,63.3152347 L59.9883405,-2.26125838 M2.85658764,63.3152347 L59.9883405,6.78377515 M59.9883405,13.5675503 L9.71239798,63.3152347 M59.9883405,9.04503354 L5.14185775,63.3152347 M7.42712787,63.3152347 L59.9883405,11.3062919 M59.9883405,-1.15463195e-14 L-3.9992227,63.3152347 M59.9883405,2.26125838 L-1.71395258,63.3152347 M0.571317528,63.3152347 L59.9883405,4.52251677 M59.9883405,15.8288087 L11.9976681,63.3152347 M59.9883405,29.396359 L25.7092888,63.3152347 M27.9945589,63.3152347 L59.9883405,31.6576174 M59.9883405,24.8738422 L21.1387485,63.3152347 M23.4240187,63.3152347 L59.9883405,27.1351006 M18.8534784,63.3152347 L59.9883405,22.6125838 M59.9883405,18.0900671 L14.2829382,63.3152347 M16.5682083,63.3152347 L59.9883405,20.3513255" id="Stroke-3" stroke="#343741" stroke-width="0.2" stroke-linecap="square" mask="url(#mask-2)"></path>
            </g>
            <polygon id="Fill-6" fill="#ACD2FF" fill-rule="nonzero" points="6.77419355 13.5483871 33.8709677 13.5483871 33.8709677 9.67741935 6.77419355 9.67741935"></polygon>
            <polygon id="Fill-7" fill="#ACD2FF" fill-rule="nonzero" points="6.77419355 22.2580645 33.8709677 22.2580645 33.8709677 18.3870968 6.77419355 18.3870968"></polygon>
            <polygon id="Fill-8" fill="#ACD2FF" fill-rule="nonzero" points="6.77419355 30.9677419 33.8709677 30.9677419 33.8709677 27.0967742 6.77419355 27.0967742"></polygon>
            <polygon id="Fill-9" fill="#ACD2FF" fill-rule="nonzero" points="6.77419355 38.7096774 33.8709677 38.7096774 33.8709677 34.8387097 6.77419355 34.8387097"></polygon>
            <polyline id="Fill-10" fill="#3679E0" fill-rule="nonzero" points="36.6601265 60 24.1935484 47.4617379 27.8181381 43.8164697 36.6601265 52.7094637 52.505001 36.7741935 56.1290323 40.4194617 36.6601265 60"></polyline>
            <polyline id="Fill-11" fill="#1E60DD" fill-rule="nonzero" points="33.6612908 57.0967742 39.0298116 57.0967742 47.4193548 48.9271728 47.4193548 41.6129032 42.7903221 46.1211438 42.7903221 52.5890971 29.0322581 52.5890971 33.6612908 57.0967742"></polyline>
        </g>
    </g>
</svg>