<svg xmlns="http://www.w3.org/2000/svg" viewBox="0 0 128 128"> <path fill="#007398" d="M124.367 33.862c-1.45-5.457-5.718-9.753-11.14-11.212C103.4 20 64 20 64 20s-39.401 0-49.227 2.65C9.35 24.11 5.08 28.405 3.633 33.862 1 43.752 1 64.386 1 64.386S1 85.02 3.632 94.911c1.45 5.456 5.72 9.753 11.14 11.212 9.827 2.65 49.228 2.65 49.228 2.65s39.401 0 49.227-2.65c5.422-1.459 9.69-5.756 11.14-11.212C127 85.021 127 64.386 127 64.386s0-20.634-2.633-30.524"></path> <path d="M51.113 83.121l32.932-18.734-32.932-18.735z" fill="#fff"></path> </svg>
