<svg xmlns="http://www.w3.org/2000/svg" viewBox="0 0 128 128"> <path fill="#007398" d="M114.597 1H13.685A12.632 12.632 0 001 13.685v100.63A12.632 12.632 0 0013.685 127h100.63A12.632 12.632 0 00127 114.315V13.403C127 6.638 121.362 1 114.597 1z" fill-rule="evenodd" clip-rule="evenodd"></path> <path d="M29.47 21.013c-6.202 0-11.557 5.074-11.557 11.557 0 6.484 5.355 11.558 11.557 11.558 6.201 0 11.557-5.074 11.557-11.558 0-6.483-5.356-11.557-11.557-11.557zm-9.302 86.82h18.886V51.173H20.168zM86.409 50.61c-7.61 0-13.53 3.382-16.349 7.892v-7.047H51.456v56.658h18.886V84.436c0-8.738 3.101-14.094 9.866-14.094 5.074 0 9.02 3.383 9.02 12.403v25.37h18.886v-34.39c0-16.35-7.329-23.114-21.705-23.114z" fill-rule="evenodd" clip-rule="evenodd" fill="#fff"></path> </svg> 
