<svg xmlns="http://www.w3.org/2000/svg" viewBox="0 0 24 24"> <path fill="#007398" d="M24.08 12c0-6.629-5.373-12.001-12-12.001-6.63 0-12.002 5.371-12.002 12 0 5.99 4.388 10.955 10.125 11.855v-8.386H7.157V12h3.047V9.355c0-3.007 1.792-4.669 4.533-4.669 1.313 0 2.686.235 2.686.235v2.953H15.91c-1.49 0-1.956.925-1.956 1.874V12h3.329l-.532 3.47h-2.797v8.385C19.692 22.954 24.08 17.99 24.08 12"></path> <path d="M16.75 15.468L17.284 12h-3.329V9.75c0-.95.465-1.875 1.956-1.875h1.513V4.921s-1.373-.235-2.686-.235c-2.741 0-4.533 1.662-4.533 4.67v2.643H7.157v3.47h3.047v8.385a12.09 12.09 0 0 0 3.75 0v-8.386h2.797" fill="#fff"></path> </svg>
