<svg xmlns="http://www.w3.org/2000/svg" viewBox="0 0 128 128"><path fill="#007398" d="M45.543 13C20.391 13 0 29.91 0 50.771c0 11.38 6.135 21.625 15.736 28.547a3.015 3.015 0 011.276 2.463c0 .336-.073.641-.162.963-.767 2.845-1.993 7.404-2.051 7.62-.096.357-.246.73-.246 1.105 0 .834.68 1.51 1.517 1.51.331 0 .6-.123.877-.284l9.971-5.726c.752-.432 1.546-.698 2.42-.698.466 0 .915.072 1.338.202a54.154 54.154 0 0017.367 2.01 29.003 29.003 0 01-1.527-9.258c0-19.024 18.593-34.448 41.533-34.448.83 0 1.654.027 2.472.067C87.091 26.8 68.263 13 45.543 13zM30.359 32.64c3.355 0 6.073 2.707 6.073 6.044 0 3.337-2.718 6.043-6.073 6.043-3.352 0-6.072-2.706-6.072-6.043s2.72-6.043 6.072-6.043zm30.364 0c3.353 0 6.072 2.707 6.072 6.044 0 3.337-2.72 6.043-6.072 6.043-3.355 0-6.073-2.706-6.073-6.043s2.718-6.043 6.073-6.043zm27.326 15.108c-20.96 0-37.953 14.095-37.953 31.477 0 17.384 16.993 31.474 37.953 31.474 4.33 0 8.512-.616 12.388-1.726a3.828 3.828 0 011.116-.164c.729 0 1.39.22 2.015.58l8.309 4.773c.23.132.455.234.728.234.7 0 1.266-.563 1.266-1.26 0-.31-.125-.62-.203-.917-.05-.18-1.072-3.98-1.711-6.35a2.984 2.984 0 01-.133-.803c0-.845.419-1.594 1.063-2.05 8-5.77 13.113-14.306 13.113-23.791 0-17.382-16.99-31.477-37.951-31.477zm-12.65 16.367c2.794 0 5.058 2.254 5.058 5.037 0 2.782-2.264 5.037-5.059 5.037h-.002c-2.793 0-5.058-2.255-5.058-5.037 0-2.783 2.266-5.037 5.06-5.037zm25.3 0c2.795 0 5.06 2.254 5.06 5.037 0 2.782-2.265 5.037-5.06 5.037h-.002c-2.793 0-5.056-2.255-5.056-5.037 0-2.783 2.264-5.037 5.058-5.037z"></path></svg>
