<?xml version="1.0" encoding="utf-8"?>
<!-- Generator: Adobe Illustrator 22.1.0, SVG Export Plug-In . SVG Version: 6.00 Build 0)  -->
<!DOCTYPE svg PUBLIC "-//W3C//DTD SVG 1.1//EN" "http://www.w3.org/Graphics/SVG/1.1/DTD/svg11.dtd">
<svg version="1.1" xmlns="http://www.w3.org/2000/svg" xmlns:xlink="http://www.w3.org/1999/xlink" x="0px" y="0px" width="128px"
	 height="128px" viewBox="0 0 128 128" style="enable-background:new 0 0 128 128;" xml:space="preserve">
<style type="text/css">
	.st0{fill:#8E9499;}
	.st1{fill:none;}
	.st2{fill:#ACD2FF;}
	.st3{fill:#3679E0;}
	.st4{fill:#1E60DD;}
	.st5{clip-path:url(#SVGID_2_);}
	.st6{fill:none;stroke:#343741;stroke-width:0.2;stroke-linecap:square;stroke-miterlimit:10;}
	.st7{clip-path:url(#SVGID_4_);}
	.st8{clip-path:url(#SVGID_6_);}
	.st9{clip-path:url(#SVGID_8_);}
	.st10{fill-rule:evenodd;clip-rule:evenodd;fill:#3679E0;}
	.st11{clip-path:url(#SVGID_10_);}
	.st12{clip-path:url(#SVGID_12_);}
</style>
<g id="Label_1_">
</g>
<g id="Box">
	<rect x="0" class="st1" width="128" height="128"/>
</g>
<g id="Icon">
	<path class="st2" d="M57,109V82H43V58.6C43,49.5,50.5,42,59.6,42H63v17h28V19h-8V4H71v15h-8v9h-3.4C42.7,28,29,41.7,29,58.6V82v27
		v4v10h14h58v-14H57z M43,110.5c-3.3,0-6-2.7-6-6s2.7-6,6-6s6,2.7,6,6S46.3,110.5,43,110.5z"/>
	<polygon class="st3" points="96,52 58,52 58,62 71,62 71,69 83,69 83,62 96,62 	"/>
	<rect x="63" y="52" class="st4" width="28" height="7"/>
	<g>
		<defs>
			<path id="SVGID_3_" d="M91,19H63v33h28V19z M43,82v10h58V82H43z"/>
		</defs>
		<clipPath id="SVGID_2_">
			<use xlink:href="#SVGID_3_"  style="overflow:visible;"/>
		</clipPath>
		<g class="st5">
			<line class="st6" x1="84" y1="3" x2="4" y2="83"/>
			<line class="st6" x1="4" y1="87" x2="88" y2="3"/>
			<line class="st6" x1="4" y1="79" x2="80" y2="3"/>
			<line class="st6" x1="4" y1="75" x2="76" y2="3"/>
			<line class="st6" x1="4" y1="71" x2="72" y2="3"/>
			<line class="st6" x1="100" y1="3" x2="4" y2="99"/>
			<line class="st6" x1="112" y1="3" x2="4" y2="111"/>
			<line class="st6" x1="92" y1="3" x2="4" y2="91"/>
			<line class="st6" x1="4" y1="95" x2="96" y2="3"/>
			<line class="st6" x1="116" y1="3" x2="4" y2="115"/>
			<line class="st6" x1="4" y1="119" x2="120" y2="3"/>
			<line class="st6" x1="4" y1="67" x2="68" y2="3"/>
			<line class="st6" x1="104" y1="3" x2="4" y2="103"/>
			<line class="st6" x1="4" y1="107" x2="108" y2="3"/>
			<line class="st6" x1="20" y1="3" x2="4" y2="19"/>
			<line class="st6" x1="24" y1="3" x2="4" y2="23"/>
			<line class="st6" x1="8" y1="3" x2="4" y2="7"/>
			<line class="st6" x1="28" y1="3" x2="4" y2="27"/>
			<line class="st6" x1="12" y1="3" x2="4" y2="11"/>
			<line class="st6" x1="4" y1="15" x2="16" y2="3"/>
			<line class="st6" x1="56" y1="3" x2="4" y2="55"/>
			<line class="st6" x1="60" y1="3" x2="4" y2="59"/>
			<line class="st6" x1="4" y1="63" x2="64" y2="3"/>
			<line class="st6" x1="4" y1="51" x2="52" y2="3"/>
			<line class="st6" x1="4" y1="47" x2="48" y2="3"/>
			<line class="st6" x1="32" y1="3" x2="4" y2="31"/>
			<line class="st6" x1="4" y1="35" x2="36" y2="3"/>
			<line class="st6" x1="40" y1="3" x2="4" y2="39"/>
			<line class="st6" x1="4" y1="43" x2="44" y2="3"/>
			<line class="st6" x1="96" y1="123" x2="124" y2="95"/>
			<line class="st6" x1="124" y1="87" x2="88" y2="123"/>
			<line class="st6" x1="92" y1="123" x2="124" y2="91"/>
			<line class="st6" x1="72" y1="123" x2="124" y2="71"/>
			<line class="st6" x1="124" y1="75" x2="76" y2="123"/>
			<line class="st6" x1="124" y1="79" x2="80" y2="123"/>
			<line class="st6" x1="84" y1="123" x2="124" y2="83"/>
			<line class="st6" x1="124" y1="115" x2="116" y2="123"/>
			<line class="st6" x1="124" y1="119" x2="120" y2="123"/>
			<line class="st6" x1="112" y1="123" x2="124" y2="111"/>
			<line class="st6" x1="124" y1="99" x2="100" y2="123"/>
			<line class="st6" x1="124" y1="103" x2="104" y2="123"/>
			<line class="st6" x1="108" y1="123" x2="124" y2="107"/>
			<line class="st6" x1="124" y1="3" x2="4" y2="123"/>
			<line class="st6" x1="8" y1="123" x2="124" y2="7"/>
			<line class="st6" x1="24" y1="123" x2="124" y2="23"/>
			<line class="st6" x1="124" y1="35" x2="36" y2="123"/>
			<line class="st6" x1="124" y1="27" x2="28" y2="123"/>
			<line class="st6" x1="32" y1="123" x2="124" y2="31"/>
			<line class="st6" x1="124" y1="11" x2="12" y2="123"/>
			<line class="st6" x1="124" y1="15" x2="16" y2="123"/>
			<line class="st6" x1="20" y1="123" x2="124" y2="19"/>
			<line class="st6" x1="124" y1="39" x2="40" y2="123"/>
			<line class="st6" x1="124" y1="63" x2="64" y2="123"/>
			<line class="st6" x1="68" y1="123" x2="124" y2="67"/>
			<line class="st6" x1="124" y1="55" x2="56" y2="123"/>
			<line class="st6" x1="60" y1="123" x2="124" y2="59"/>
			<line class="st6" x1="52" y1="123" x2="124" y2="51"/>
			<line class="st6" x1="124" y1="43" x2="44" y2="123"/>
			<line class="st6" x1="48" y1="123" x2="124" y2="47"/>
		</g>
	</g>
</g>
</svg>
