<?xml version="1.0" encoding="UTF-8"?>
<svg width="80px" height="80px" viewBox="0 0 80 80" version="1.1" xmlns="http://www.w3.org/2000/svg" xmlns:xlink="http://www.w3.org/1999/xlink">
    <title>demonstrate-impact-80x80</title>
    <defs>
        <polygon id="path-1" points="0 0 12.1578947 0 12.1578947 60.7894737 0 60.7894737"></polygon>
    </defs>
    <g id="demonstrate-impact-80x80" stroke="none" stroke-width="1" fill="none" fill-rule="evenodd">
        <g id="0016-demonstrate-impact" transform="translate(7.000000, 10.000000)">
            <path d="M50.3684211,60.7894737 L62.5263158,60.7894737 L62.5263158,9.84210526 L50.3684211,9.84210526 L50.3684211,60.7894737 Z M34.7368421,60.7894737 L46.8947368,60.7894737 L46.8947368,27.7894737 L34.7368421,27.7894737 L34.7368421,60.7894737 Z M3.47368421,60.7894737 L15.6315789,60.7894737 L15.6315789,19.1052632 L3.47368421,19.1052632 L3.47368421,60.7894737 Z" id="Fill-1" fill="#ACD2FF" fill-rule="nonzero"></path>
            <g id="Stroke-2-Clipped" transform="translate(19.105263, 0.000000)">
                <mask id="mask-2" fill="white">
                    <use xlink:href="#path-1"></use>
                </mask>
                <g id="path-1"></g>
                <path d="M25.4736842,-4.05263158 L-20.8421053,42.2631579 M-20.8421053,44.5789474 L27.7894737,-4.05263158 M-20.8421053,39.9473684 L23.1578947,-4.05263158 M-20.8421053,37.6315789 L20.8421053,-4.05263158 M-20.8421053,35.3157895 L18.5263158,-4.05263158 M34.7368421,-4.05263158 L-20.8421053,51.5263158 M41.6842105,-4.05263158 L-20.8421053,58.4736842 M30.1052632,-4.05263158 L-20.8421053,46.8947368 M-20.8421053,49.2105263 L32.4210526,-4.05263158 M44,-4.05263158 L-20.8421053,60.7894737 M-20.8421053,63.1052632 L46.3157895,-4.05263158 M-20.8421053,33 L16.2105263,-4.05263158 M37.0526316,-4.05263158 L-20.8421053,53.8421053 M-20.8421053,56.1578947 L39.3684211,-4.05263158 M9.26315789,-4.05263158 L-20.8421053,26.0526316 M11.5789474,-4.05263158 L-20.8421053,28.3684211 M-20.8421053,30.6842105 L13.8947368,-4.05263158 M-20.8421053,23.7368421 L6.94736842,-4.05263158 M-20.8421053,21.4210526 L4.63157895,-4.05263158 M0,-4.05263158 L-20.8421053,16.7894737 M-20.8421053,19.1052632 L2.31578947,-4.05263158 M48.6315789,-4.05263158 L-20.8421053,65.4210526 M-18.5263158,65.4210526 L48.6315789,-1.73684211 M-9.26315789,65.4210526 L48.6315789,7.52631579 M48.6315789,14.4736842 L-2.31578947,65.4210526 M48.6315789,9.84210526 L-6.94736842,65.4210526 M-4.63157895,65.4210526 L48.6315789,12.1578947 M48.6315789,0.578947368 L-16.2105263,65.4210526 M48.6315789,2.89473684 L-13.8947368,65.4210526 M-11.5789474,65.4210526 L48.6315789,5.21052632 M48.6315789,16.7894737 L-3.55271368e-15,65.4210526 M48.6315789,26.0526316 L9.26315789,65.4210526 M11.5789474,65.4210526 L48.6315789,28.3684211 M6.94736842,65.4210526 L48.6315789,23.7368421 M48.6315789,19.1052632 L2.31578947,65.4210526 M4.63157895,65.4210526 L48.6315789,21.4210526" id="Stroke-2" stroke="#343741" stroke-width="0.2" stroke-linecap="square" mask="url(#mask-2)"></path>
            </g>
            <path d="M62.5263158,20.8421053 C60.6076842,20.8421053 59.0526316,22.3971579 59.0526316,24.3157895 C59.0526316,24.7002105 59.1174737,25.0684211 59.2326842,25.4140526 L48.8064211,38.7981579 C48.7485263,38.7952632 48.6906316,38.7894737 48.6315789,38.7894737 C47.7313158,38.7894737 46.9144211,39.1345263 46.2972632,39.6961053 L36.4690526,34.6407368 C36.4169474,32.7666842 34.8856316,31.2631579 33,31.2631579 C31.0813684,31.2631579 29.5263158,32.8182105 29.5263158,34.7368421 C29.5263158,35.0211053 29.5639474,35.2955263 29.6287895,35.5601053 L18.5211053,46.5155263 C18.1598421,46.3887368 17.7731053,46.3157895 17.3684211,46.3157895 C16.5115789,46.3157895 15.7288421,46.6272632 15.1232632,47.1413684 L6.93173684,43.7284737 C6.941,43.6265789 6.94736842,43.5246842 6.94736842,43.4210526 C6.94736842,41.5024211 5.39231579,39.9473684 3.47368421,39.9473684 C1.55505263,39.9473684 0,41.5024211 0,43.4210526 C0,45.3391053 1.55505263,46.8947368 3.47368421,46.8947368 C4.21994737,46.8947368 4.90889474,46.6573684 5.47510526,46.2573158 L13.8958947,49.7663158 C13.8958947,49.7738421 13.8947368,49.7813684 13.8947368,49.7894737 C13.8947368,51.7075263 15.4497895,53.2631579 17.3684211,53.2631579 C19.2870526,53.2631579 20.8421053,51.7075263 20.8421053,49.7894737 C20.8421053,49.3436842 20.7552632,48.9198947 20.6024211,48.5285263 L31.4414737,37.8376842 C31.9104211,38.0744737 32.439,38.2105263 33,38.2105263 C33.8967895,38.2105263 34.7119474,37.8672105 35.3285263,37.3091053 L45.1631053,42.3679474 C45.2186842,44.2373684 46.7482632,45.7368421 48.6315789,45.7368421 C50.5496316,45.7368421 52.1052632,44.1817895 52.1052632,42.2631579 C52.1052632,41.4786842 51.8418421,40.7567368 51.403,40.1754737 L61.2439474,27.5422632 C61.6411053,27.7003158 62.073,27.7894737 62.5263158,27.7894737 C64.4443684,27.7894737 66,26.2338421 66,24.3157895 C66,22.3971579 64.4443684,20.8421053 62.5263158,20.8421053" id="Fill-5" fill="#3679E0" fill-rule="nonzero"></path>
            <path d="M5.47510526,46.2573158 L13.8958947,49.7663158 C13.8958947,49.7738421 13.8947368,49.7813684 13.8947368,49.7894737 C13.8947368,51.0747368 14.5941053,52.1938421 15.6315789,52.7947895 L15.6315789,46.7847368 C15.4515263,46.8889474 15.2807368,47.0076316 15.1232632,47.1413684 L6.93173684,43.7284737 C6.941,43.6265789 6.94736842,43.5246842 6.94736842,43.4210526 C6.94736842,41.503 5.39231579,39.9473684 3.47368421,39.9473684 L3.47368421,46.8947368 C4.21994737,46.8947368 4.90889474,46.6573684 5.47510526,46.2573158" id="Fill-6" fill="#1E60DD" fill-rule="nonzero"></path>
            <path d="M46.8947368,39.2671053 C46.6816842,39.3915789 46.4784737,39.5311053 46.2972632,39.6961053 L36.4690526,34.6407368 C36.4348947,33.3965789 35.7459474,32.3191579 34.7368421,31.7332632 L34.7368421,37.7328947 C34.9475789,37.6095789 35.1484737,37.4723684 35.3285263,37.3091053 L45.1631053,42.3679474 C45.2001579,43.6080526 45.8879474,44.6825789 46.8947368,45.2673158 L46.8947368,39.2671053" id="Fill-7" fill="#1E60DD" fill-rule="nonzero"></path>
            <path d="M59.0526316,24.3157895 C59.0526316,24.7002105 59.1174737,25.0684211 59.2326842,25.4140526 L50.3684211,36.7932632 L50.3684211,45.2684737 C51.4058947,44.6675263 52.1052632,43.5484211 52.1052632,42.2631579 C52.1052632,41.4786842 51.8418421,40.7567368 51.403,40.1754737 L61.2439474,27.5422632 C61.6411053,27.7003158 62.073,27.7894737 62.5263158,27.7894737 L62.5263158,20.8421053 C60.6076842,20.8421053 59.0526316,22.3977368 59.0526316,24.3157895" id="Fill-8" fill="#1E60DD" fill-rule="nonzero"></path>
        </g>
        <rect id="Rectangle" x="0" y="0" width="80" height="80"></rect>
    </g>
</svg>