<?xml version="1.0" encoding="utf-8"?>
<!-- Generator: Adobe Illustrator 22.1.0, SVG Export Plug-In . SVG Version: 6.00 Build 0)  -->
<!DOCTYPE svg PUBLIC "-//W3C//DTD SVG 1.1//EN" "http://www.w3.org/Graphics/SVG/1.1/DTD/svg11.dtd">
<svg version="1.1" xmlns="http://www.w3.org/2000/svg" xmlns:xlink="http://www.w3.org/1999/xlink" x="0px" y="0px" width="128px"
	 height="128px" viewBox="0 0 128 128" style="enable-background:new 0 0 128 128;" xml:space="preserve">
<style type="text/css">
	.st0{fill:none;}
	.st1{fill:#ACD2FF;}
	.st2{fill:#3679E0;}
	.st3{fill:#1E60DD;}
	.st4{clip-path:url(#SVGID_2_);}
	.st5{fill:none;stroke:#343741;stroke-width:0.2;stroke-linecap:square;stroke-miterlimit:10;}
	.st6{clip-path:url(#SVGID_4_);}
	.st7{clip-path:url(#SVGID_6_);}
	.st8{clip-path:url(#SVGID_8_);}
	.st9{fill-rule:evenodd;clip-rule:evenodd;fill:#3679E0;}
	.st10{clip-path:url(#SVGID_10_);}
	.st11{clip-path:url(#SVGID_12_);}
</style>
<g id="Label_1_">
</g>
<g id="Box">
	<rect class="st0" width="128" height="128"/>
</g>
<g id="Icon">
	<rect x="53" y="35" class="st1" width="20" height="60"/>
	<rect x="53" y="35" transform="matrix(6.123234e-17 -1 1 6.123234e-17 -2 128)" class="st2" width="20" height="60"/>
	<rect x="53" y="55" class="st3" width="20" height="20"/>
	<g>
		<defs>
			<circle id="SVGID_7_" cx="63" cy="65" r="48"/>
		</defs>
		<clipPath id="SVGID_2_">
			<use xlink:href="#SVGID_7_"  style="overflow:visible;"/>
		</clipPath>
		<g class="st4">
			<line class="st5" x1="86" y1="4" x2="6" y2="84"/>
			<line class="st5" x1="6" y1="88" x2="90" y2="4"/>
			<line class="st5" x1="6" y1="80" x2="82" y2="4"/>
			<line class="st5" x1="6" y1="76" x2="78" y2="4"/>
			<line class="st5" x1="6" y1="72" x2="74" y2="4"/>
			<line class="st5" x1="102" y1="4" x2="6" y2="100"/>
			<line class="st5" x1="114" y1="4" x2="6" y2="112"/>
			<line class="st5" x1="94" y1="4" x2="6" y2="92"/>
			<line class="st5" x1="6" y1="96" x2="98" y2="4"/>
			<line class="st5" x1="118" y1="4" x2="6" y2="116"/>
			<line class="st5" x1="6" y1="120" x2="122" y2="4"/>
			<line class="st5" x1="6" y1="68" x2="70" y2="4"/>
			<line class="st5" x1="106" y1="4" x2="6" y2="104"/>
			<line class="st5" x1="6" y1="108" x2="110" y2="4"/>
			<line class="st5" x1="22" y1="4" x2="6" y2="20"/>
			<line class="st5" x1="26" y1="4" x2="6" y2="24"/>
			<line class="st5" x1="10" y1="4" x2="6" y2="8"/>
			<line class="st5" x1="30" y1="4" x2="6" y2="28"/>
			<line class="st5" x1="14" y1="4" x2="6" y2="12"/>
			<line class="st5" x1="6" y1="16" x2="18" y2="4"/>
			<line class="st5" x1="58" y1="4" x2="6" y2="56"/>
			<line class="st5" x1="62" y1="4" x2="6" y2="60"/>
			<line class="st5" x1="6" y1="64" x2="66" y2="4"/>
			<line class="st5" x1="6" y1="52" x2="54" y2="4"/>
			<line class="st5" x1="6" y1="48" x2="50" y2="4"/>
			<line class="st5" x1="34" y1="4" x2="6" y2="32"/>
			<line class="st5" x1="6" y1="36" x2="38" y2="4"/>
			<line class="st5" x1="42" y1="4" x2="6" y2="40"/>
			<line class="st5" x1="6" y1="44" x2="46" y2="4"/>
			<line class="st5" x1="98" y1="124" x2="126" y2="96"/>
			<line class="st5" x1="126" y1="88" x2="90" y2="124"/>
			<line class="st5" x1="94" y1="124" x2="126" y2="92"/>
			<line class="st5" x1="74" y1="124" x2="126" y2="72"/>
			<line class="st5" x1="126" y1="76" x2="78" y2="124"/>
			<line class="st5" x1="126" y1="80" x2="82" y2="124"/>
			<line class="st5" x1="86" y1="124" x2="126" y2="84"/>
			<line class="st5" x1="126" y1="116" x2="118" y2="124"/>
			<line class="st5" x1="126" y1="120" x2="122" y2="124"/>
			<line class="st5" x1="114" y1="124" x2="126" y2="112"/>
			<line class="st5" x1="126" y1="100" x2="102" y2="124"/>
			<line class="st5" x1="126" y1="104" x2="106" y2="124"/>
			<line class="st5" x1="110" y1="124" x2="126" y2="108"/>
			<line class="st5" x1="126" y1="4" x2="6" y2="124"/>
			<line class="st5" x1="10" y1="124" x2="126" y2="8"/>
			<line class="st5" x1="26" y1="124" x2="126" y2="24"/>
			<line class="st5" x1="126" y1="36" x2="38" y2="124"/>
			<line class="st5" x1="126" y1="28" x2="30" y2="124"/>
			<line class="st5" x1="34" y1="124" x2="126" y2="32"/>
			<line class="st5" x1="126" y1="12" x2="14" y2="124"/>
			<line class="st5" x1="126" y1="16" x2="18" y2="124"/>
			<line class="st5" x1="22" y1="124" x2="126" y2="20"/>
			<line class="st5" x1="126" y1="40" x2="42" y2="124"/>
			<line class="st5" x1="126" y1="64" x2="66" y2="124"/>
			<line class="st5" x1="70" y1="124" x2="126" y2="68"/>
			<line class="st5" x1="126" y1="56" x2="58" y2="124"/>
			<line class="st5" x1="62" y1="124" x2="126" y2="60"/>
			<line class="st5" x1="54" y1="124" x2="126" y2="52"/>
			<line class="st5" x1="126" y1="44" x2="46" y2="124"/>
			<line class="st5" x1="50" y1="124" x2="126" y2="48"/>
		</g>
	</g>
</g>
</svg>
