<svg xmlns="http://www.w3.org/2000/svg" viewBox="0 0 128 128"> <path fill="#007398" d="M40.625 116.887c47.548 0 73.554-39.393 73.554-73.554 0-1.119 0-2.233-.075-3.342A52.598 52.598 0 0 0 127 26.611a51.6 51.6 0 0 1-14.848 4.066 25.941 25.941 0 0 0 11.365-14.298 51.807 51.806 0 0 1-16.415 6.275A25.876 25.875 0 0 0 63.048 46.23 73.393 73.393 0 0 1 9.77 19.22a25.87 25.87 0 0 0 8.003 34.51A25.659 25.659 0 0 1 6.04 50.494v.327a25.86 25.86 0 0 0 20.74 25.342 25.81 25.81 0 0 1-11.673.443A25.88 25.88 0 0 0 39.26 94.56a51.872 51.872 0 0 1-32.105 11.088A52.623 52.623 0 0 1 1 105.275a73.186 73.186 0 0 0 39.625 11.592"></path> </svg>
