<svg xmlns="http://www.w3.org/2000/svg" viewBox="0 0 128 128"> <path fill="#007398" d="M95.956 61.852c-1.785-.54-3.021-.9-2.079-3.262 2.031-5.106 2.244-9.521.038-12.665-4.134-5.909-15.438-5.587-28.397-.16 0-.003-4.065 1.782-3.024-1.445 1.994-6.41 1.69-11.78-1.411-14.876-7.03-7.036-25.727.265-41.76 16.292C7.32 57.748.347 70.474.347 81.473c0 21.05 26.992 33.843 53.4 33.843 34.615 0 57.642-20.108 57.642-36.078 0-9.645-8.127-15.122-15.432-17.386zm-42.14 45.921c-21.068 2.079-39.26-7.443-40.63-21.277-1.366-13.83 14.61-26.732 35.678-28.815 21.076-2.083 39.26 7.438 40.631 21.268 1.361 13.84-14.607 26.74-35.679 28.824zm65.131-84.439c-8.359-9.268-20.69-12.801-32.072-10.382h-.005a4.872 4.872 0 0 0-3.745 5.782 4.867 4.867 0 0 0 5.78 3.75c8.102-1.716 16.86.798 22.805 7.381 5.935 6.586 7.55 15.563 5.007 23.434v.002a4.863 4.863 0 0 0 3.139 6.132 4.87 4.87 0 0 0 6.136-3.125v-.024c3.575-11.07 1.314-23.692-7.045-32.95z"></path> <path fill="#007398" d="M104.25 53.678c2.207.703 4.572-.5 5.282-2.706 1.744-5.393.656-11.538-3.421-16.053-4.072-4.514-10.078-6.228-15.624-5.049a4.186 4.186 0 0 0-3.222 4.98c.48 2.262 2.713 3.713 4.97 3.222v.005c2.712-.573 5.652.263 7.64 2.462a8.003 8.003 0 0 1 1.672 7.853h.005a4.205 4.205 0 0 0 2.699 5.286zM55.92 68.33c-10.026-2.614-21.359 2.38-25.713 11.22-4.436 9.01-.145 19.01 9.983 22.286 10.492 3.38 22.861-1.808 27.163-11.524 4.24-9.516-1.056-19.303-11.433-21.983zm-7.652 23.01c-2.044 3.247-6.404 4.672-9.691 3.171-3.242-1.472-4.195-5.25-2.16-8.422 2.012-3.154 6.232-4.565 9.496-3.196 3.301 1.41 4.353 5.16 2.355 8.446zm6.71-8.623c-.733 1.26-2.364 1.866-3.641 1.345-1.255-.52-1.649-1.927-.934-3.167.734-1.231 2.297-1.828 3.55-1.336 1.271.47 1.73 1.89 1.026 3.158z"></path> </svg>
