<?xml version="1.0" encoding="UTF-8"?>
<svg width="80px" height="80px" viewBox="0 0 80 80" version="1.1" xmlns="http://www.w3.org/2000/svg" xmlns:xlink="http://www.w3.org/1999/xlink">
    <title>find-articles-80x80</title>
    <defs>
        <path d="M20.2066071,3.52285714 C17.98875,1.30446429 15.0396429,0.0825 11.9025,0.0825 C8.76482143,0.0825 5.81571429,1.30446429 3.59839286,3.52285714 C3.59839286,3.52285714 3.59839286,3.52285714 3.59785714,3.52339286 C1.37946429,5.74125 0.1575,8.69035714 0.1575,11.8275 C0.1575,14.9646429 1.37946429,17.91375 3.59785714,20.1321429 C5.81571429,22.35 8.76482143,23.5719643 11.9025,23.5719643 C15.0396429,23.5719643 17.98875,22.3505357 20.2066071,20.1321429 C22.425,17.91375 23.6469643,14.9646429 23.6469643,11.8275 C23.6469643,8.69035714 22.425,5.74125 20.2066071,3.52285714" id="path-1"></path>
        <path d="M11.9785714,0.0825 C8.84142857,0.0825 5.89232143,1.30446429 3.67446429,3.52285714 C3.675,3.52285714 3.675,3.52285714 3.67446429,3.52339286 C1.45607143,5.74125 0.234107143,8.69035714 0.234107143,11.8275 C0.234107143,14.9646429 1.45607143,17.91375 3.67446429,20.1321429 C5.89232143,22.35 8.84142857,23.5719643 11.9785714,23.5719643 C15.11625,23.5719643 18.0653571,22.3505357 20.2832143,20.1321429 C22.5016071,17.91375 23.7235714,14.9646429 23.7235714,11.8275 C23.7230357,8.69035714 22.5016071,5.74125 20.2832143,3.52285714 C18.0653571,1.30446429 15.11625,0.0825 11.9785714,0.0825" id="path-3"></path>
    </defs>
    <g id="find-articles-80x80" stroke="none" stroke-width="1" fill="none" fill-rule="evenodd">
        <g id="0205-find-articles-" transform="translate(1.000000, 10.000000)">
            <path d="M16.7978571,52.5401786 C15.5110714,53.8275 13.7994643,54.53625 11.9785714,54.53625 C10.1582143,54.53625 8.44660714,53.8275 7.15928571,52.5396429 C5.87196429,51.2523214 5.16267857,49.5407143 5.16267857,47.7203571 C5.16267857,45.9 5.87196429,44.1878571 7.15928571,42.9005357 L7.15982143,42.9005357 C8.44660714,41.6132143 10.1582143,40.9039286 11.9785714,40.9039286 C13.7994643,40.9039286 15.5110714,41.6132143 16.7983929,42.9005357 C18.0857143,44.1878571 18.7944649,45.9 18.7944649,47.7203571 C18.795,49.54125 18.0857143,51.2523214 16.7978571,52.5401786 Z M33.97875,29.2044643 L30.4939286,25.7196429 L18.3541071,37.86 C16.4710714,36.6369643 14.2767857,35.9753571 11.9785714,35.9753571 C8.84142857,35.9753571 5.89232143,37.1973214 3.67446429,39.4157143 C3.67446429,39.4157143 3.675,39.4157143 3.67446429,39.41625 C1.45607143,41.6341071 0.234107143,44.5832143 0.234107143,47.7203571 C0.234107143,50.8575 1.45607143,53.8066071 3.67446429,56.025 C5.89232143,58.2428571 8.84142857,59.4648214 11.9785714,59.4648214 C15.11625,59.4648214 18.0653571,58.2433929 20.2832143,56.025 C22.5016071,53.8066071 23.7235714,50.8575 23.7235714,47.7203571 C23.7230357,45.4221429 23.0614286,43.2278571 21.8389286,41.3448214 L33.97875,29.2044643 L33.97875,29.2044643 Z" id="Fill-1" fill="#ACD2FF" fill-rule="nonzero"></path>
            <path d="M38.6935714,36.645 C35.3608929,36.6139286 32.1964286,35.5553571 29.5601786,33.6241071 C28.8685714,33.1173214 28.2133929,32.5505357 27.6010714,31.9264286 C27.0482143,31.3633929 26.5430357,30.7666071 26.0871429,30.1403571 C24.1114286,27.4264286 23.0608929,24.165 23.0935714,20.7471429 C23.1332143,16.5401786 24.8094643,12.6005357 27.8121429,9.65410714 C30.7783929,6.74303571 34.6885714,5.14553571 38.83875,5.14553571 C38.8896429,5.14553571 38.9410714,5.14607143 38.9925,5.14660714 C43.1989286,5.18625 47.1380357,6.86196429 50.0839286,9.86464286 L50.0839286,9.86517857 C53.0308929,12.8683929 54.6316071,16.8385714 54.5919643,21.0455357 C54.5523214,25.2519643 52.8760714,29.1916071 49.8723214,32.1380357 C46.8707143,35.0844643 42.8930357,36.6894643 38.6935714,36.645 Z M66.1210714,44.6882143 L55.1008929,33.6685714 C57.9203571,30.0948214 59.4766071,25.7185714 59.52,21.0921429 C59.5725,15.5689286 57.4708929,10.3558929 53.6019643,6.41357143 C49.7346429,2.47071429 44.5623214,0.270535714 39.0391071,0.218035714 C33.5089286,0.146785714 28.3023214,2.26714286 24.3605357,6.13607143 C20.4176786,10.0044643 18.2175,15.1767857 18.165,20.7 C18.12,25.4501786 19.6682143,29.9705357 22.5626786,33.6503571 C23.0341071,34.2492857 23.5414286,34.82625 24.0830357,35.3780357 C24.7033929,36.0107143 25.3569643,36.5978571 26.04,37.1383929 C29.6185714,39.97125 34.00875,41.5296429 38.6469643,41.5735714 C38.7144643,41.5741071 38.7808929,41.5746429 38.8483929,41.5746429 C43.5342857,41.5741071 47.985,40.0194643 51.6166071,37.1544643 L62.6357143,48.1735714 L66.1210714,44.6882143 L66.1210714,44.6882143 Z" id="Fill-2" fill="#3679E0" fill-rule="nonzero"></path>
            <path d="M27.6010714,31.9264286 C27.0482143,31.3633929 26.5430357,30.7666071 26.0871429,30.1403571 C26.0855357,30.1376786 26.0839286,30.1344643 26.0817857,30.1317857 L22.5632143,33.6508929 C23.0346429,34.2498214 23.5414286,34.82625 24.0830357,35.3780357 C24.7033929,36.0107143 25.3569643,36.5978571 26.04,37.1383929 C26.0410714,37.1394643 26.0421429,37.14 26.0426786,37.1405357 L29.5596429,33.6235714 C28.8680357,33.1167857 28.2133929,32.5505357 27.6010714,31.9264286" id="Fill-3" fill="#1E60DD" fill-rule="nonzero"></path>
            <g id="Stroke-4-Clipped" transform="translate(53.035714, 35.892857)">
                <mask id="mask-2" fill="white">
                    <use xlink:href="#path-1"></use>
                </mask>
                <g id="path-1"></g>
                <path d="M2.67857143,-38.5714286 L-40.1785714,4.28571429 M-40.1785714,6.42857143 L4.82142857,-38.5714286 M-40.1785714,2.14285714 L0.535714286,-38.5714286 M11.25,-38.5714286 L-40.1785714,12.8571429 M17.6785714,-38.5714286 L-40.1785714,19.2857143 M6.96428571,-38.5714286 L-40.1785714,8.57142857 M-40.1785714,10.7142857 L9.10714286,-38.5714286 M19.8214286,-38.5714286 L-40.1785714,21.4285714 M-40.1785714,23.5714286 L21.9642857,-38.5714286 M13.3928571,-38.5714286 L-40.1785714,15 M-40.1785714,17.1428571 L15.5357143,-38.5714286 M9.10714286,25.7142857 L24.1071429,10.7142857 M24.1071429,6.42857143 L4.82142857,25.7142857 M6.96428571,25.7142857 L24.1071429,8.57142857 M-3.75,25.7142857 L24.1071429,-2.14285714 M24.1071429,-7.10542736e-15 L-1.60714286,25.7142857 M24.1071429,2.14285714 L0.535714286,25.7142857 M2.67857143,25.7142857 L24.1071429,4.28571429 M24.1071429,21.4285714 L19.8214286,25.7142857 M24.1071429,23.5714286 L21.9642857,25.7142857 M17.6785714,25.7142857 L24.1071429,19.2857143 M24.1071429,12.8571429 L11.25,25.7142857 M24.1071429,15 L13.3928571,25.7142857 M15.5357143,25.7142857 L24.1071429,17.1428571 M24.1071429,-38.5714286 L-40.1785714,25.7142857 M-38.0357143,25.7142857 L24.1071429,-36.4285714 M-29.4642857,25.7142857 L24.1071429,-27.8571429 M24.1071429,-21.4285714 L-23.0357143,25.7142857 M24.1071429,-25.7142857 L-27.3214286,25.7142857 M-25.1785714,25.7142857 L24.1071429,-23.5714286 M24.1071429,-34.2857143 L-35.8928571,25.7142857 M24.1071429,-32.1428571 L-33.75,25.7142857 M-31.6071429,25.7142857 L24.1071429,-30 M24.1071429,-19.2857143 L-20.8928571,25.7142857 M24.1071429,-6.42857143 L-8.03571429,25.7142857 M-5.89285714,25.7142857 L24.1071429,-4.28571429 M24.1071429,-10.7142857 L-12.3214286,25.7142857 M-10.1785714,25.7142857 L24.1071429,-8.57142857 M-14.4642857,25.7142857 L24.1071429,-12.8571429 M24.1071429,-17.1428571 L-18.75,25.7142857 M-16.6071429,25.7142857 L24.1071429,-15" id="Stroke-4" stroke="#343741" stroke-width="0.2" stroke-linecap="square" mask="url(#mask-2)"></path>
            </g>
            <g id="Stroke-7-Clipped" transform="translate(0.000000, 35.892857)">
                <mask id="mask-4" fill="white">
                    <use xlink:href="#path-3"></use>
                </mask>
                <g id="path-3"></g>
                <path d="M42.8571429,-38.5714286 L0,4.28571429 M0,6.42857143 L45,-38.5714286 M0,2.14285714 L40.7142857,-38.5714286 M0,0 L38.5714286,-38.5714286 M51.4285714,-38.5714286 L0,12.8571429 M57.8571429,-38.5714286 L0,19.2857143 M47.1428571,-38.5714286 L0,8.57142857 M0,10.7142857 L49.2857143,-38.5714286 M60,-38.5714286 L0,21.4285714 M0,23.5714286 L62.1428571,-38.5714286 M53.5714286,-38.5714286 L0,15 M0,17.1428571 L55.7142857,-38.5714286 M64.2857143,-38.5714286 L0,25.7142857 M2.14285714,25.7142857 L64.2857143,-36.4285714 M10.7142857,25.7142857 L64.2857143,-27.8571429 M64.2857143,-21.4285714 L17.1428571,25.7142857 M64.2857143,-25.7142857 L12.8571429,25.7142857 M15,25.7142857 L64.2857143,-23.5714286 M64.2857143,-34.2857143 L4.28571429,25.7142857 M64.2857143,-32.1428571 L6.42857143,25.7142857 M8.57142857,25.7142857 L64.2857143,-30 M64.2857143,-19.2857143 L19.2857143,25.7142857 M64.2857143,-17.1428571 L21.4285714,25.7142857 M23.5714286,25.7142857 L64.2857143,-15" id="Stroke-7" stroke="#343741" stroke-width="0.2" stroke-linecap="square" mask="url(#mask-4)"></path>
            </g>
        </g>
        <rect id="Rectangle" x="0" y="0" width="80" height="80"></rect>
    </g>
</svg>